# xmcd
#
# Track frame offsets: 
#        150
#        13167
#        30350
#        45375
#        59575
#        73532
#        84475
#        96995
#        114677
#        127325
#        138917
#        153350
#        163497
#        175867
#        188995
#        204550
#
# Disc length: 2909 seconds
#
# Revision: 0
# Processed by: cddbd v1.5.2PL0 Copyright (c) Steve Scherf et al.
# Submitted via: ExactAudioCopy v0.99pb1
#
DISCID=e50b5b10
DTITLE=Various Artist - 理查 愛的羅曼史
DYEAR=1900
DGENRE=Easy Listening
TTITLE0=Will You Love Me Tomorrow
TTITLE1=Where Have The Flowers Gone
TTITLE2=You Need Me
TTITLE3=Love Story
TTITLE4=Blowing In The Wind
TTITLE5=Snow Bird
TTITLE6=To Sir With Love
TTITLE7=Kiss Me Good Bye
TTITLE8=Studpid Cupid
TTITLE9=Speedy Gonazales
TTITLE10=The Young One
TTITLE11=Summer Holiday
TTITLE12=Blame It On The Bossa Nova
TTITLE13=Goodbye Jimmy Goodbye
TTITLE14=Paloma Blance
TTITLE15=Beautiful Sunday
EXTD=
EXTT0=
EXTT1=
EXTT2=
EXTT3=
EXTT4=
EXTT5=
EXTT6=
EXTT7=
EXTT8=
EXTT9=
EXTT10=
EXTT11=
EXTT12=
EXTT13=
EXTT14=
EXTT15=
PLAYORDER=
